<svg xmlns="http://www.w3.org/2000/svg" width="23" height="20" viewBox="0 0 23 20"><g><g><path fill="#717171" d="M18.116 14.17v3.854h-.002l.002.35c-3.824 1.888-10.17 2.426-13.833.01C2.066 16.923-.12 14.015 0 10.335.113 6.84 2.43 3.71 5.615 2.135c3.663-1.812 9.19-1.47 12.413 1.14L16.13 5.17l-1.23.342.654-1.164c-.94-.924-2.019-1.594-3.206-1.965-1.895-.593-3.642-.265-5.099.431-2.982 1.43-4.746 4.89-4.061 8.55.722 3.857 3.772 6.95 7.772 7.275 1.18.097 2.47.04 3.613-.255.812-.256.806-.334.806-.816V14.17l-4.006.117 2.062-1.137h5.57zM20 0h1v2h2v1h-2v2h-1V3h-2V2h2z"/></g></g></svg>