<svg xmlns="http://www.w3.org/2000/svg" width="17" height="22" viewBox="0 0 17 22"><g><g><path fill="#717171" d="M8.223.002c4.237-.062 6.89 1.604 8.139 4.526.412.964.852 2.738.522 4.21-.132.588-.17 1.2-.348 1.754-.363 1.127-.835 2.123-1.461 2.983-.85 1.167-2.138 1.954-3.757 2.35-1.431.35-2.748-.174-3.513-.737-.243-.179-.57-.413-.66-.736H7.11c-.055.59-.288 1.216-.452 1.754-.228.744-.272 1.514-.557 2.21-.316.773-.7 1.48-1.113 2.14-.217.346-.816 1.53-1.252 1.544-.048-.09-.067-.123-.07-.28-.14-.218-.042-.583-.104-.878-.096-.46-.171-1.287-.07-1.754v-.737c.112-.506.108-1.024.244-1.508.295-1.054.46-2.172.765-3.263.293-1.049.562-2.196.8-3.263.054-.241-.248-.934-.313-1.193-.204-.817-.049-1.948.209-2.561C5.52 5.79 6.47 4.61 7.7 4.914c.989.243 1.619 1.281 1.287 2.596-.348 1.38-.8 2.618-1.113 4-.08.356.058.734.14.947.292.77 1.18 1.517 2.364 1.228 1.796-.438 2.59-2.016 3.13-3.719.147-.46.13-.896.244-1.403.242-1.072.14-2.672-.208-3.509-.558-1.341-1.598-2.2-3.027-2.666l-1.182-.21c-.66-.147-1.92.073-2.365.21C4.975 3 3.74 4.023 2.97 5.86c-.262.626-.406 1.26-.453 2.14l-.034.316c.154.786.17 1.308.487 1.895.156.29.528.517.59.877.038.212-.122.532-.173.701-.077.257-.049.551-.174.772-.226.4-.842.1-1.113-.07C.694 11.611-.466 9.061.188 6.598c.1-.38.106-.711.244-1.053.853-2.113 2.126-3.412 3.965-4.525.689-.418 1.617-.624 2.47-.842L8.222.002z"/></g></g></svg>