<svg xmlns="http://www.w3.org/2000/svg" width="22" height="18" viewBox="0 0 22 18"><g><g><path fill="#717171" d="M14.964.001c1.748-.031 2.679.611 3.568 1.428.754-.066 1.734-.49 2.312-.786l.561-.31c-.33.899-.777 1.602-1.464 2.136-.153.118-.304.278-.496.354v.011c.98-.01 1.788-.456 2.555-.697v.01c-.403.647-.949 1.302-1.53 1.771l-.705.565c.013 1.045-.016 2.043-.21 2.921-1.127 5.107-4.113 8.574-8.841 10.06-1.698.533-4.442.752-6.387.265-.964-.241-1.836-.514-2.653-.874-.455-.2-.875-.417-1.278-.664L0 15.948c.439.013.952.135 1.442.055.444-.072.88-.054 1.289-.144 1.02-.226 1.927-.524 2.708-.985.38-.223.954-.486 1.223-.808a3.8 3.8 0 0 1-1.344-.243c-1.46-.52-2.31-1.475-2.863-2.91.443.048 1.717.164 2.015-.09-.557-.03-1.092-.355-1.475-.597C1.821 9.486.863 8.243.87 6.331l.462.221c.295.125.595.193.947.266.149.03.446.119.617.055h-.022c-.227-.266-.598-.444-.826-.73-.753-.944-1.46-2.397-1.013-4.128.113-.439.293-.826.485-1.184l.022.011c.087.185.283.32.407.476.385.48.86.913 1.343 1.295C4.94 3.912 6.425 4.71 8.81 5.302a8.56 8.56 0 0 0 2.026.265c-.203-.595-.138-1.559.022-2.135.402-1.45 1.274-2.495 2.554-3.055a5.427 5.427 0 0 1 1.002-.31l.551-.066z"/></g></g></svg>