<svg xmlns="http://www.w3.org/2000/svg" width="22" height="22" viewBox="0 0 22 22"><g><g><path fill="#717171" d="M8.898.003L7.005 5.476V8H5.968V5.633L4.162.003h1.422L6.5 3.399h.089L7.463.003zm3.086 6.312c0 .538-.163.958-.486 1.262-.327.304-.399.456-.969.456-.548 0-.706-.157-1.035-.47C9.164 7.248 9 6.824 9 6.29V3.665c0-.485.168-.871.506-1.162.338-.285.48-.524 1.049-.524.52 0 .6.246.934.549.33.302.495.695.495 1.174zm4.003 1.561h-1.005V6.81c-.23.255-.47.826-.721.958-.25.133-.492.2-.728.2-.29 0-.196-.094-.343-.281-.146-.185-.22-.464-.22-.84V1.98h1.002v4.433c0 .15.029.256.082.321.05.067.074.102.192.102.092 0 .208-.42.35-.507.14-.09.27-.203.386-.34V1.98h1.005zm6.024 10.015c0 2.268-1.8 4.108-4.022 4.108H4.014C1.792 22-.01 20.16-.01 17.891v-3.803c0-2.27 1.8-4.108 4.023-4.108h13.975c2.221 0 4.022 1.839 4.022 4.108zm-4.4 1.69c.257-.273.382-.678.382-1.218v-.27h-1.047v.24c0 .31-.035.51-.101.6-.067.09-.186.135-.354.135-.163 0-.278-.053-.346-.159-.066-.108-.099-.299-.099-.577V17h1.947V16c0-.496-.123-1.339-.374-1.606-.25-.264-.609-.397-1.075-.397-.457 0-.827.142-1.115.43-.288.287-.433 1.121-.433 1.573v2.362c0 .508.132.905.393 1.192.262.288.622.433 1.079.433.507 0 .888-.135 1.142-.406zm-1.564-3.399v-.187c0-.22.033-.842.104-.933.071-.098.187-.145.35-.145.154 0 .269.047.338.145.071.091.107.713.107.933v.187zm-2.289 3.506c.165-.21.248-.507.248-.896v-3.535c0-.45-.087-.793-.264-1.026-.174-.235-.428-.353-.76-.353-.163 0-.323.044-.484.13-.156.088-.37.217-.51.384v-2.401h-.998v7.936h1.06v-.422c.136.17.287.294.448.374.159.08.342.12.548.12.31 0 .55-.103.712-.311zm-.74-1.048c0 .177-.124.302-.184.38-.06.078-.154.116-.283.116a.593.593 0 0 1-.254-.059c-.08-.038-.226-.105-.31-.194v-3.908c.071-.077.206-.133.278-.169a.475.475 0 0 1 .223-.054c.141 0 .25.047.327.142.073.096.203.237.203.424zm-4.071 1.35h1.049v-5.977h-.987v4.61c-.098.116-.269.212-.387.29a.774.774 0 0 1-.355.113c-.098 0-.17-.027-.215-.086-.043-.057-.065-.15-.065-.278v-4.649H6.97v5.024c0 .325.092.564.215.73.124.16.305.241.548.241.197 0 .4-.056.609-.172.21-.118.41-.347.605-.567zm-2.953-7.002h1.018v-.998h-3.01v.998h.987v6.999h1.005zm4.843-6.182c.1-.097.15-.23.15-.397V3.62a.406.406 0 0 0-.153-.332.444.444 0 0 0-.34-.128.54.54 0 0 0-.373.128.42.42 0 0 0-.143.331V6.41c0 .172.044.304.134.397.088.095.216.141.382.141a.42.42 0 0 0 .343-.14z"/></g></g></svg>